<?xml version="1.0" encoding="UTF-8" standalone="no"?>
<!-- Created with Inkscape (http://www.inkscape.org/) -->

<svg
   version="1.1"
   id="svg1"
   width="1576.9354"
   height="411.98584"
   viewBox="0 0 1576.9354 411.98584"
   xmlns="http://www.w3.org/2000/svg"
   xmlns:svg="http://www.w3.org/2000/svg">
  <defs
     id="defs1" />
  <g
     id="g1"
     transform="translate(-2.70117,-129.56641)">
    <path
       style="fill:#016ac8;fill-opacity:1;stroke-width:1"
       d="M 863.40339,335.55932 V 129.5664 h 3.49141 3.4914 v 205.99292 205.99292 h -3.4914 -3.49141 z M 118.96932,529.50449 c -7.58567,-1.80899 -12.15109,-7.33115 -9.75794,-11.8028 1.66791,-3.11651 2.91011,-2.55654 4.96543,2.23834 2.17047,5.06352 6.14103,7.22005 11.64798,6.32639 4.4343,-0.71959 6.37855,-2.27393 6.37855,-5.09935 0,-2.71461 -3.29566,-5.8146 -13.20226,-12.41841 -4.28321,-2.85522 -8.38821,-6.44374 -9.22729,-8.06634 -4.81967,-9.32023 2.50375,-18.00271 15.15762,-17.9705 7.2329,0.0185 10.66076,1.64139 11.07898,5.24552 0.38561,3.32306 -0.97073,3.45499 -5.12299,0.49834 -3.8969,-2.77484 -9.70831,-2.93396 -12.57,-0.34418 -4.37205,3.95664 -2.00689,7.79645 9.52468,15.46325 10.38072,6.90165 12.48975,9.30357 12.63389,14.3883 0.24266,8.56068 -10.29432,14.21531 -21.50665,11.54144 z m 187.08113,0.1062 c -7.09625,-1.68599 -12.40916,-7.96476 -10.21257,-12.06914 1.48037,-2.76609 3.00536,-2.03173 5.42051,2.61027 2.25074,4.32599 5.49088,6.40043 10.0316,6.42255 6.02568,0.0294 9.39296,-4.99011 6.20723,-9.25278 -0.68582,-0.91765 -5.05079,-4.25795 -9.69995,-7.42286 -9.98518,-6.79743 -13.4068,-11.16997 -12.61612,-16.12229 1.05809,-6.62706 7.68191,-11.07932 16.4832,-11.07932 6.43935,0 9.82183,1.35123 11.25468,4.49598 1.88844,4.14466 -0.30852,5.24866 -4.33989,2.18085 -4.63879,-3.53003 -7.97343,-4.16954 -11.69809,-2.24344 -2.3833,1.23246 -3.10007,2.26957 -3.10007,4.48557 0,3.39034 2.49646,5.9513 12.436,12.75734 8.60645,5.89321 11.88613,10.37222 11.11776,15.18339 -1.27459,7.9809 -10.89086,12.52326 -21.28429,10.05388 z m 269.56138,0.0894 c -1.64595,-0.42326 -3.97963,-1.29989 -5.18595,-1.94806 -4.58709,-2.46468 -6.83544,-8.61261 -4.00788,-10.95928 1.75041,-1.45272 3.40893,-0.21915 4.25897,3.16771 1.31962,5.25773 9.06003,8.11504 14.8442,5.47959 6.3165,-2.87798 3.9713,-7.45478 -7.78813,-15.19897 -9.17291,-6.04082 -12.10998,-9.09733 -13.10792,-13.64091 -0.76989,-3.50532 1.60668,-8.16237 5.7362,-11.24039 3.3103,-2.46739 12.94621,-3.40525 17.9659,-1.7486 3.67009,1.21124 6.10328,4.86303 4.72554,7.09225 -0.65575,1.06103 -1.65399,0.79155 -4.81383,-1.29954 -5.1667,-3.41915 -8.3931,-4.17726 -11.28726,-2.65217 -2.88697,1.52132 -3.79873,2.83094 -3.81842,5.48473 -0.0189,2.54484 3.21903,5.57682 13.26259,12.41906 8.27019,5.63412 10.6632,8.81644 10.6632,14.18039 0,6.29312 -4.80956,10.24238 -13.56025,11.1347 -2.69188,0.2745 -6.24101,0.15276 -7.88696,-0.27051 z M 144.54405,528.376 c -0.40983,-0.66311 -0.76733,-10.522 -0.79447,-21.90869 -0.0373,-15.6444 0.2655,-21.01682 1.23915,-21.98727 0.89134,-0.88841 4.03571,-1.22329 10.20198,-1.08652 13.36194,0.29637 18.72364,3.46073 19.64006,11.59112 0.60804,5.39448 -1.62119,10.57089 -5.55244,12.89313 -1.53701,0.90794 -5.57321,2.09828 -8.96933,2.64521 -3.39611,0.54693 -6.62026,1.26976 -7.16475,1.60628 -0.54452,0.33652 -0.99002,3.8623 -0.99002,7.83506 0,4.28798 -0.48643,7.70963 -1.19705,8.42025 -1.5481,1.5481 -5.45429,1.54288 -6.41313,-0.009 z m 16.04105,-22.15221 c 4.06676,-1.6992 5.53476,-4.15887 5.53476,-9.27358 0,-5.10306 -2.20138,-7.97794 -7.1239,-9.30344 -6.48663,-1.74667 -6.84173,-1.26308 -6.84173,9.3171 0,5.13794 0.29926,9.64099 0.66503,10.00675 1.06724,1.06723 4.12883,0.7728 7.76584,-0.74683 z m 9.52493,22.42274 c 0,-2.48922 14.55028,-42.60718 16.21305,-44.70256 1.42886,-1.8006 5.17499,-1.53171 6.94839,0.49878 2.58263,2.95703 17.10292,43.44623 15.98253,44.56661 -1.09612,1.09613 -6.98586,0.56312 -8.05844,-0.72928 -0.59411,-0.71585 -2.12091,-4.19478 -3.39289,-7.73097 l -2.31271,-6.42942 -5.01284,0.12264 c -7.32427,0.17922 -10.63025,2.30863 -14.06882,9.06182 -2.61354,5.1329 -6.29827,8.25839 -6.29827,5.34238 z m 23.7236,-19.479 c 0.59268,-0.55972 -5.42333,-15.88145 -6.35811,-16.19304 -0.86979,-0.28994 -6.3925,14.65889 -6.3925,17.30313 0,0.69438 2.01866,0.7239 6.23465,0.0911 3.42906,-0.5146 6.36124,-1.05519 6.51596,-1.2013 z m 72.26991,18.69749 c -0.40042,-0.97614 -0.71553,-10.81099 -0.70026,-21.85521 0.0212,-15.31871 0.34583,-20.46366 1.36908,-21.69658 1.09724,-1.3221 3.45189,-1.61341 12.94031,-1.60092 12.06995,0.0159 14.80288,0.6858 13.77076,3.37547 -0.4996,1.30192 -2.28514,1.59699 -9.66399,1.59699 h -9.05118 l 0.29136,7.73096 0.29135,7.73097 3.99018,0.28429 c 2.19459,0.15637 4.66352,0.52509 5.48649,0.8194 2.60196,0.93052 -1.90456,3.38526 -6.21477,3.38526 h -3.83836 l 0.28823,8.72851 0.28823,8.72852 9.29305,0.28769 c 8.14676,0.2522 9.25266,0.49829 8.96558,1.99508 -0.28615,1.49201 -1.99586,1.74254 -13.55276,1.98589 -11.8942,0.25044 -13.29857,0.0998 -13.9533,-1.49632 z m 74.30135,1.09886 c -0.39177,-0.39178 -0.76542,-8.38093 -0.83033,-17.7537 -0.065,-9.37275 -0.40377,-18.38807 -0.753,-20.03402 -0.59426,-2.80075 -0.98588,-3.02461 -6.10798,-3.49139 -4.17725,-0.38069 -5.55142,-0.91209 -5.8042,-2.24449 -0.30526,-1.60914 1.04595,-1.74569 17.27215,-1.74569 16.22671,0 17.57731,0.1365 17.27076,1.74569 -0.26675,1.40039 -1.56385,1.80445 -6.55717,2.0427 l -6.22464,0.29697 -0.11165,11.17479 c -0.0615,6.14612 -0.39809,15.43928 -0.74817,20.65144 l -0.6365,9.47668 -3.02849,0.29666 c -1.66566,0.16316 -3.34902,-0.0239 -3.74078,-0.41564 z m 23.67613,-0.65278 c -0.26815,-0.6988 -0.36629,-11.1356 -0.21807,-23.19292 l 0.26947,-21.92237 3.24202,0.0555 c 1.7831,0.0306 15.84399,0.1427 31.2464,0.24938 26.07348,0.18059 27.98146,0.31433 27.67184,1.93966 -0.26676,1.40039 -1.56386,1.80445 -6.55718,2.0427 -3.42355,0.16333 -6.2865,0.38778 -6.36213,0.49877 -0.0756,0.11097 -0.41229,9.40413 -0.74816,20.65144 l -0.61066,20.44967 -2.80358,0.32146 c -5.40039,0.61919 -5.67555,-0.3656 -5.67555,-20.31296 0,-10.03795 -0.27247,-18.96089 -0.6055,-19.82873 -0.51474,-1.34139 -2.83873,-1.5779 -15.50389,-1.5779 h -14.89841 l 0.29135,7.73096 0.29135,7.73097 4.73833,0.30404 c 3.32673,0.21347 4.73834,0.73354 4.73834,1.7457 0,0.95867 -1.08617,1.44623 -3.24202,1.45528 -7.64562,0.0322 -7.83672,0.2822 -7.51859,9.83846 l 0.28639,8.6025 h 9.143 c 9.56049,0 10.94006,0.40835 9.96488,2.9496 -0.49067,1.27871 -2.79691,1.53934 -13.62139,1.53934 -9.63341,0 -13.1578,-0.33124 -13.51824,-1.27052 z m 64.83673,0.18393 c -1.07636,-1.74161 -1.69052,-33.79263 -0.76288,-39.81273 0.80692,-5.23671 0.98103,-5.48649 3.8243,-5.48649 h 2.9789 l 0.26777,23.19291 0.26777,23.1929 h -2.95214 c -1.62369,0 -3.25435,-0.48897 -3.62372,-1.08659 z m 24.49489,-0.0291 c -6.31765,-2.50595 -12.25532,-10.90724 -13.47981,-19.07268 -1.48046,-9.87246 4.21011,-20.97097 12.85619,-25.07379 6.26835,-2.97454 16.90889,-1.55459 20.4628,2.7307 1.19393,1.43965 1.14122,1.93848 -0.38272,3.62243 -1.74886,1.93246 -1.79799,1.92705 -4.70351,-0.51777 -5.86781,-4.93746 -11.35071,-4.4836 -14.88312,1.23196 -1.83764,2.97336 -2.36914,5.5136 -2.69037,12.85838 -0.63549,14.52972 2.84732,21.34628 10.90649,21.34628 3.63133,0 4.69808,-0.54921 7.9876,-4.11241 3.71723,-4.02646 6.86997,-4.73316 6.86997,-1.53992 0,2.08837 -3.7882,6.49419 -7.02135,8.16612 -3.21015,1.66003 -12.1367,1.86226 -15.92217,0.3607 z m 22.94352,-0.13276 c 0,-3.62663 14.76755,-42.99932 16.64911,-44.38921 3.57698,-2.64231 6.27381,-1.54712 8.48185,3.44451 4.00513,9.05427 14.79545,40.34873 14.22851,41.26604 -0.31515,0.50991 -2.10727,0.9271 -3.98251,0.9271 -3.95298,0 -5.31686,-1.68389 -7.93527,-9.79719 -0.94222,-2.91954 -2.34527,-5.55082 -3.1179,-5.84731 -2.81891,-1.08172 -10.38318,0.83118 -13.4323,3.39686 -1.69599,1.42708 -4.05896,4.64903 -5.25103,7.15989 -2.07219,4.36463 -5.64046,6.79345 -5.64046,3.83931 z m 23.68881,-19.1152 c 0.17209,-0.1721 -1.10246,-4.22445 -2.83234,-9.0052 -1.72988,-4.78076 -3.47794,-8.32086 -3.88457,-7.8669 -0.40663,0.45395 -2.16167,4.81668 -3.90007,9.69494 l -3.16072,8.86957 6.73239,-0.68975 c 3.70281,-0.37937 6.87321,-0.83056 7.04531,-1.00266 z m 97.01407,19.77312 c 0,-0.99753 11.64013,-33.45268 14.27798,-39.81002 2.1595,-5.2045 2.86524,-6.02444 5.41008,-6.2856 1.60964,-0.16517 3.37903,0.28372 3.93198,0.99755 2.64339,3.41249 16.65184,43.28518 15.73087,44.77532 -0.31043,0.5023 -2.13197,0.91327 -4.04786,0.91327 -3.75825,0 -3.56927,0.27223 -7.79143,-11.22237 -1.6467,-4.48301 -1.93761,-4.73715 -5.39877,-4.71643 -7.70273,0.0461 -13.85089,4.61865 -17.07198,12.69679 -0.81683,2.04847 -1.98268,3.24201 -3.16681,3.24201 -1.03073,0 -1.87406,-0.26573 -1.87406,-0.59052 z m 23.2166,-20.23197 c 0.67364,-0.67365 -3.61669,-14.63822 -4.93343,-16.05775 -0.72926,-0.7862 -2.18388,2.14024 -4.44822,8.949 -1.18599,3.56623 -2.39025,7.11579 -2.67612,7.88793 -0.42722,1.15393 0.5289,1.28065 5.36965,0.71173 3.23916,-0.38071 6.24883,-1.05162 6.68812,-1.49091 z m 20.00912,19.60399 c -1.06535,-1.65875 -1.73775,-32.26281 -0.86272,-39.26633 0.58346,-4.66986 1.01216,-5.48485 3.16995,-6.02643 1.39366,-0.34979 2.99935,-0.12217 3.63711,0.51559 0.75118,0.7512 1.27826,7.8762 1.54055,20.82552 0.26644,13.15386 0.77345,19.92679 1.52835,20.41655 0.62132,0.40308 5.09041,0.73976 9.93131,0.74816 7.84054,0.0136 8.76509,0.2059 8.46682,1.76097 -0.29537,1.53992 -1.88249,1.77845 -13.46355,2.02351 -9.81622,0.20771 -13.33539,-0.044 -13.94782,-0.99754 z m 34.97802,-0.20735 c -1.70286,-0.74128 -4.17179,-2.85596 -5.48649,-4.6993 -2.31522,-3.24614 -2.39037,-3.93173 -2.39037,-21.80609 V 483.1958 l 2.29937,-0.32596 c 4.40428,-0.62435 5.17666,1.23824 5.25318,12.66802 0.12347,18.44188 1.14944,26.01627 3.81655,28.17595 2.55259,2.06696 9.00277,2.52332 12.1159,0.85722 3.82174,-2.04534 4.43151,-4.93311 4.94501,-23.41943 0.41872,-15.074 0.73892,-17.9558 1.99509,-17.9558 1.27614,0 1.49631,2.71553 1.49631,18.45457 0,20.47834 -0.72769,23.45821 -6.45138,26.41804 -3.61484,1.86931 -13.38814,1.91783 -17.59317,0.0873 z m 30.27921,0.87043 c -0.41149,-0.42604 -0.74816,-10.83968 -0.74816,-23.14138 V 483.5181 l 10.7236,0.34637 c 11.78149,0.38051 16.15545,1.82781 20.98356,6.94321 3.456,3.66162 5.03226,8.07416 5.12053,14.33415 0.14685,10.41515 -4.33137,17.98614 -12.87395,21.76497 -4.6678,2.06482 -21.75137,3.62512 -23.20558,2.11944 z m 18.00337,-5.32688 c 5.49395,-2.8028 8.56734,-8.89322 8.60253,-17.04729 0.047,-10.89413 -5.38845,-18.41499 -13.81798,-19.11941 -3.47311,-0.29022 -3.99769,-0.0407 -4.59287,2.18474 -0.9365,3.50176 -0.64334,33.10326 0.34295,34.62716 1.16875,1.80582 5.19953,1.53107 9.46537,-0.6452 z m -487.277,-10.24469 c -4.86588,-2.40147 -5.05604,-10.26726 -0.30965,-12.80745 2.5123,-1.34454 7.33467,-0.46495 9.09773,1.65941 1.7133,2.0644 1.60326,8.02001 -0.18046,9.7667 -2.04199,1.99962 -6.05121,2.64301 -8.60762,1.38134 z m 299.44169,-0.0281 c -2.79111,-1.58275 -3.45857,-2.82462 -3.47613,-6.4677 -0.036,-7.47291 10.33999,-9.68675 12.97069,-2.76746 1.47522,3.8801 1.21472,5.29506 -1.46886,7.97865 -2.66156,2.66156 -4.92344,3.01568 -8.0257,1.25651 z m -160.71749,-34.9035 c 0.86482,-4.3241 3.44868,-6.95943 6.4679,-6.59672 1.35795,0.16313 2.63916,0.81552 2.84717,1.44974 0.58187,1.77423 -5.6609,8.32354 -7.93394,8.32354 -1.73442,0 -1.92758,-0.44429 -1.38113,-3.17656 z m 612.52437,-24.82947 c -7.78375,-2.26013 -14.80229,-13.26213 -16.4979,-25.86152 -2.28637,-16.98903 4.22602,-33.40719 15.39606,-38.81451 7.30006,-3.5339 19.17791,-2.15855 21.93111,2.53944 2.0978,3.57938 2.6685,0.0938 2.9216,-17.84157 l 0.2709,-19.20273 4.2635,-1.34906 c 2.3448,-0.742 5.3749,-1.07013 6.7334,-0.72916 l 2.47,0.61991 v 49.74188 49.74187 l -2.2445,0.60149 c -6.2831,1.68378 -8.9812,0.45252 -10.2711,-4.68703 l -0.7055,-2.81076 -3.1155,3.01516 c -5.6767,5.49376 -13.3143,7.3124 -21.15207,5.03659 z m 17.92707,-9.99283 c 4.6472,-3.65546 5.5963,-7.68147 5.5923,-23.72133 0,-13.0185 -0.2286,-14.96845 -2.0886,-18.08337 -2.9816,-4.99346 -5.8345,-6.93526 -10.22624,-6.96062 -3.0058,-0.0174 -4.45332,0.63511 -6.6676,3.00552 -4.28613,4.5883 -5.4507,9.16176 -5.4523,21.41213 -0.002,12.6453 1.54776,19.2274 5.52946,23.48983 3.44254,3.68524 9.24338,4.05903 13.31298,0.85784 z m 238.8784,9.55916 c -8.3924,-2.6905 -13.2905,-9.39503 -11.2022,-15.33327 1.4542,-4.13489 3.8465,-3.72208 7.2706,1.25462 3.6119,5.24987 7.3012,8.08043 11.802,9.05508 4.0749,0.88241 9.7509,-0.93065 11.7216,-3.74417 3.7763,-5.39143 0.2274,-10.51429 -11.516,-16.62392 -4.4248,-2.30201 -9.6614,-5.60468 -11.6371,-7.3393 -10.0659,-8.83798 -9.3761,-23.95339 1.3806,-30.25729 11.941,-6.99789 33.1613,-1.97905 32.0478,7.57969 -0.4455,3.82517 -4.0919,3.89454 -7.8373,0.14911 -3.94,-3.94 -9.8346,-5.5933 -14.4781,-4.06081 -3.874,1.27857 -5.4139,3.48417 -5.4139,7.75479 0,3.96432 3.444,7.1789 13.6537,12.74421 14.9101,8.12753 17.7859,11.93646 17.1036,22.65321 -0.4813,7.55768 -3.0496,11.73369 -9.1447,14.86926 -5.3654,2.76013 -17.1776,3.40608 -23.7506,1.29879 z m 51.0516,-0.18578 c -6.9238,-3.60387 -7.4548,-5.80489 -8.0143,-33.22228 l -0.4988,-24.43983 -4.2395,-0.30675 c -3.9188,-0.28353 -4.2396,-0.52073 -4.2396,-3.13529 0,-3.0789 1.4428,-4.03955 6.0669,-4.03955 2.8963,0 2.911,-0.0304 2.911,-6.05085 0,-3.32796 0.4651,-6.91973 1.0333,-7.98169 0.9757,-1.82283 9.7155,-6.91589 11.8679,-6.91589 0.5848,0 1.114,4.43264 1.2801,10.72361 l 0.2832,10.72359 7.2321,0.2931 7.2322,0.29308 v 2.90523 2.90522 l -7.2322,0.2931 -7.2321,0.29309 -0.2689,21.05988 c -0.3043,23.83943 0.4186,28.12312 5.0181,29.73895 1.9365,0.68029 3.817,0.58326 6.3338,-0.32682 6.5768,-2.37819 7.2503,1.66141 1.049,6.29136 -3.7985,2.83595 -13.9199,3.32547 -18.5822,0.89874 z m 71.241,0.28863 c -3.5994,-1.5678 -8.1785,-6.72536 -9.0484,-10.19157 -0.3399,-1.35467 -0.4148,-4.91566 -0.1662,-7.91329 0.8159,-9.83906 8.0492,-15.90263 24.7074,-20.71185 4.6289,-1.33636 8.5748,-2.90545 8.7685,-3.48686 0.1939,-0.58138 -0.1201,-3.6665 -0.6975,-6.85581 -1.4408,-7.95725 -4.5097,-10.69022 -11.2744,-10.04022 -5.0325,0.48356 -10.0579,4.00138 -11.2981,7.90853 -0.7596,2.39337 -5.0601,2.38073 -6.3443,-0.0187 -1.5537,-2.90323 1.7078,-8.15907 7.1292,-11.48822 8.5003,-5.21982 23.8994,-4.71815 30.0433,0.97872 5.7122,5.29665 6.0916,7.05878 6.6335,30.80218 0.2753,12.07028 0.864,22.50709 1.3078,23.1929 0.4438,0.68581 2.1272,1.24693 3.7408,1.24693 4.4385,0 3.966,4.35567 -0.7415,6.83348 -5.3872,2.83556 -13.739,0.5247 -16.2779,-4.5039 -0.7854,-1.55559 -1.4934,-2.95378 -1.5735,-3.10708 -0.08,-0.1533 -1.6661,1.14736 -3.5245,2.89037 -6.0932,5.71483 -14.4891,7.46764 -21.3842,4.46434 z m 20.2645,-10.98878 c 3.7097,-3.39906 3.7275,-3.45379 4.0755,-12.48706 0.4667,-12.12522 0.3684,-12.32359 -5.1727,-10.43558 -10.0344,3.41909 -15.7584,11.68753 -13.5723,19.60528 2.0348,7.36975 8.621,8.85914 14.6695,3.31736 z m 40.1703,10.64467 c -6.9103,-3.48596 -7.4545,-5.73817 -8.0142,-33.1668 l -0.4987,-24.43983 -4.2396,-0.30675 c -3.9373,-0.28486 -4.2396,-0.51202 -4.2396,-3.18466 0,-2.67264 0.3023,-2.8998 4.2396,-3.18467 l 4.2396,-0.30674 0.4987,-6.98281 c 0.5849,-8.18997 0.9494,-8.90269 5.8247,-11.38989 7.5763,-3.86511 7.581,-3.86065 8.1409,7.89848 l 0.4988,10.47422 7.2322,0.2931 7.2321,0.29308 v 2.94893 2.94893 h -7.4815 -7.4816 v 21.97802 c 0,24.53986 0.7071,28.28512 5.5714,29.50596 1.4992,0.37627 4.258,0.12054 6.1741,-0.57235 2.8488,-1.03013 3.612,-1.01281 4.2983,0.0975 2.2426,3.62858 -5.7457,8.84038 -13.5499,8.84038 -2.7652,0 -6.5283,-0.77721 -8.4453,-1.74416 z m 117.3048,0.34328 c -9.4588,-3.52003 -15.7446,-11.81279 -18.2608,-24.09151 -1.852,-9.03743 -0.916,-17.99411 2.7471,-26.28805 9.064,-20.52215 38.6942,-21.658 48.8916,-1.87421 1.6496,3.20026 1.9073,5.8998 1.9041,19.95088 0,14.7252 -0.2002,16.57742 -2.0969,19.74124 -3.0998,5.17088 -6.8828,8.90572 -11.3663,11.22205 -5.1412,2.65606 -16.4204,3.34857 -21.8188,1.3396 z m 15.1787,-7.26316 c 4.275,-2.70021 6.4497,-9.61329 6.9459,-22.08027 0.5359,-13.46329 -1.3736,-22.37994 -5.8095,-27.1286 -2.2889,-2.45022 -3.571,-2.9742 -7.2771,-2.9742 -3.7958,0 -4.9012,0.47806 -7.0728,3.05897 -4.3487,5.16817 -5.8692,12.55844 -5.4117,26.30284 0.3445,10.34867 0.7577,12.81363 2.8585,17.05443 3.8356,7.74227 9.4106,9.78142 15.7667,5.76683 z m -659.55328,7.00456 c -0.36577,-0.36576 -0.66503,-1.37885 -0.66503,-2.25129 0,-0.87244 6.24123,-21.08448 13.86941,-44.91567 9.30181,-29.05974 14.47601,-43.78458 15.71132,-44.71158 2.23198,-1.67489 9.91272,-1.08579 11.83778,0.90792 0.7211,0.74684 7.83913,21.085 15.81781,45.19592 10.80727,32.65862 14.2314,44.16977 13.42712,45.13888 -1.40449,1.69229 -11.85144,1.71992 -14.15237,0.0374 -0.98773,-0.72225 -3.76541,-7.66569 -6.48476,-16.21011 l -4.75694,-14.94665 -6.42459,0.0442 c -8.73803,0.0601 -17.48832,2.83053 -21.38084,6.7694 -2.39363,2.42213 -3.77811,5.49564 -5.91779,13.1373 -1.53621,5.48649 -3.24638,10.53656 -3.80038,11.22237 -1.06105,1.31353 -5.94754,1.7151 -7.08074,0.5819 z m 32.03746,-38.92175 c 5.09313,-0.33663 9.44199,-0.90615 9.66415,-1.26562 0.66097,-1.06947 -10.02653,-34.32263 -11.15179,-34.69772 -0.56897,-0.18966 -1.26236,0.45909 -1.54087,1.44166 -0.2785,0.98257 -2.80458,9.16633 -5.6135,18.18612 -2.80892,9.0198 -5.10713,16.8156 -5.10713,17.32399 0,0.5084 1.01,0.63169 2.24447,0.27399 1.23445,-0.35771 6.41156,-0.92579 11.50467,-1.26242 z m 103.16302,38.38973 c -0.8791,-0.87917 -1.1971,-9.34695 -1.1971,-31.88632 0,-34.61319 -0.4479,-32.75456 7.8958,-32.75456 3.5929,0 4.1028,0.30158 4.6379,2.74325 1.2217,5.5755 1.2896,5.59789 5.4841,1.80839 4.7797,-4.31811 7.6644,-5.54919 13.0031,-5.54919 5.7625,0 10.2576,2.25544 12.8478,6.44631 l 2.2759,3.68256 3.6121,-3.5194 c 11.174,-10.88755 27.1504,-7.72316 31.0005,6.1402 0.5797,2.08728 1.0328,14.46131 1.0359,28.29232 0.01,27.18697 0.3642,25.79349 -6.6256,25.79349 -7.5344,0 -7.3342,0.68833 -7.336,-25.22309 0,-20.05298 -0.2353,-23.62448 -1.7457,-26.63852 -3.0492,-6.08523 -9.8304,-6.54229 -15.3388,-1.03389 l -2.8648,2.8648 v 23.81831 c 0,17.19527 -0.3329,24.15115 -1.1971,25.01534 -1.469,1.46898 -8.2103,1.57124 -10.839,0.16441 -1.8218,-0.97498 -1.9295,-2.31348 -1.9295,-23.97311 0,-24.57953 -0.641,-28.53046 -5.0083,-30.86775 -3.2135,-1.71981 -8.2028,-0.38671 -11.5259,3.07961 l -2.9179,3.04375 -0.3013,24.1001 c -0.2168,17.34941 -0.6359,24.31288 -1.4964,24.85978 -1.8946,1.20448 -10.1512,0.91165 -11.4697,-0.40679 z m 91.8239,0.5364 c -0.9602,-0.38752 -1.2469,-7.69741 -1.2469,-31.80757 0,-29.92883 0.085,-31.3498 1.9296,-32.33707 2.6286,-1.40682 9.3701,-1.30457 10.839,0.16441 0.8789,0.87889 1.197,9.31042 1.197,31.72192 0,22.4115 -0.3181,30.84302 -1.197,31.72191 -1.1696,1.16967 -9.0438,1.53625 -11.5217,0.5364 z m 24.4399,-0.4168 c -1.6029,-0.93366 -1.7457,-3.53768 -1.7457,-31.85599 0,-29.46888 0.086,-30.88509 1.9296,-31.87185 1.0612,-0.56795 3.5143,-1.03264 5.4513,-1.03264 3.7345,0 5.5872,1.96304 5.5872,5.91969 0,2.7564 1.1542,2.59607 4.0656,-0.56479 7.227,-7.84584 21.8855,-8.47738 28.5564,-1.23029 5.0038,5.4361 5.5506,8.66435 5.8498,34.53527 0.236,20.40271 0.046,24.42924 -1.2115,25.68676 -1.8087,1.80871 -10.3992,2.01723 -12.1222,0.29424 -0.8609,-0.86085 -1.1971,-7.5669 -1.1971,-23.87612 0,-12.4735 -0.4309,-23.81262 -0.9577,-25.19805 -3.1828,-8.37127 -13.6847,-8.89246 -19.9026,-0.98772 -1.9797,2.51686 -2.0832,3.82478 -2.0832,26.34813 0,26.28064 0.3672,24.94002 -6.815,24.88047 -2.0126,-0.0167 -4.4448,-0.48787 -5.4049,-1.04711 z m 60.8502,0.0485 c -1.6019,-0.97753 -1.7457,-3.60461 -1.7457,-31.90446 0,-29.46888 0.086,-30.88509 1.9295,-31.87185 1.0612,-0.56795 3.4935,-1.03264 5.405,-1.03264 7.0707,0 6.6311,-2.18872 6.6311,33.0257 0,17.49807 -0.1122,31.82558 -0.2494,31.83889 -0.1371,0.0134 -2.4938,0.24594 -5.2371,0.51691 -2.7432,0.27098 -5.7733,0.0134 -6.7334,-0.57255 z m 111.725,-0.0485 c -1.603,-0.93366 -1.7457,-3.53768 -1.7457,-31.85599 0,-30.03135 0.053,-30.86776 2.0373,-31.92955 1.1205,-0.59969 3.7016,-0.95215 5.7359,-0.78325 3.6229,0.3008 3.7166,0.41339 4.5811,5.50841 l 0.8824,5.20133 2.8885,-3.98741 c 3.65,-5.03869 8.3089,-7.90305 12.8623,-7.90783 5.5233,-0.006 7.1508,1.71931 6.3493,6.73067 -0.369,2.30826 -1.2357,4.96891 -1.9256,5.91253 -1.1156,1.52573 -1.6918,1.57135 -5.2042,0.41219 -3.4123,-1.12617 -4.3758,-1.08302 -7.0834,0.31717 -6.0155,3.1107 -6.6232,5.67866 -6.982,29.50441 -0.1959,12.99973 -0.7346,21.92954 -1.3692,22.69413 -1.2464,1.50184 -8.5543,1.62326 -11.0267,0.18319 z m 131.4977,-0.49012 c -1.3549,-1.35486 -1.5675,-5.59767 -1.5675,-31.26804 0,-27.50645 0.1348,-29.82242 1.8242,-31.35139 2.0813,-1.88349 10.6273,-2.29611 11.6974,-0.56476 0.3691,0.59738 0.8927,14.65729 1.1635,31.24423 0.4459,27.31106 0.3343,30.31618 -1.1824,31.8328 -2.1823,2.18229 -9.7917,2.25061 -11.9352,0.10716 z m 40.0872,0.32064 c -0.8915,-0.68581 -5.1826,-11.34706 -9.5354,-23.69168 -12.2129,-34.63446 -13.5602,-38.90954 -12.5725,-39.89117 0.4981,-0.49506 3.9699,-0.58672 7.7455,-0.20451 l 6.8426,0.69268 7.2725,22.26169 c 3.9998,12.24393 7.4838,22.47311 7.7421,22.73154 0.4403,0.44017 6.2419,-17.06501 12.1529,-36.66885 1.5096,-5.00633 3.2532,-8.8832 4.1499,-9.22729 2.3901,-0.91723 5.1876,-0.70345 5.901,0.45097 0.8085,1.30809 -19.3676,61.545 -21.242,63.4194 -1.7139,1.7139 -6.3042,1.78296 -8.4566,0.12722 z m -772.60539,-4.37334 c -1.23445,-0.27707 -2.24447,-0.64216 -2.24447,-0.81133 0,-0.87233 3.95392,-9.72721 10.93644,-24.49228 25.45539,-53.8275 29.96288,-66.88688 29.96288,-86.81048 V 325.9503 l -6.90287,-9.30546 c -12.03302,-16.22118 -12.26161,-17.73848 -4.66107,-30.93859 6.66622,-11.57743 6.47259,-14.2796 -1.77854,-24.81941 -11.9505,-15.26533 -34.85052,-35.46582 -60.01753,-52.94251 -13.3245,-9.2529 -14.97315,-10.78831 -13.75453,-12.80972 3.51142,-5.82467 22.81298,-18.25867 34.37096,-22.14168 11.16436,-3.75076 30.41571,-4.68439 42.40177,-2.05635 16.7759,3.67826 42.95971,19.61191 40.92816,24.90605 -0.32447,0.84554 -7.45136,6.64665 -15.83753,12.89134 -18.74476,13.95812 -37.69234,30.08527 -37.69234,32.08167 0,0.81718 3.03068,4.66397 6.73484,8.54841 l 6.73485,7.0626 5.45815,-6.81948 c 5.80199,-7.24908 37.21417,-44.74363 39.50414,-47.15336 1.96738,-2.07025 4.3145,0.32037 12.66665,12.90141 14.49392,21.83255 22.89649,46.53291 25.62052,75.3146 5.01865,53.02628 -9.98731,102.33977 -40.39455,132.74702 -7.30992,7.30991 -22.58721,17.7568 -28.60282,19.55912 -5.21114,1.56128 -5.60815,1.01275 -9.71415,-13.42119 -5.63506,-19.80912 -7.53915,-25.13867 -9.08785,-25.43692 -1.49971,-0.28882 -6.92469,9.28197 -6.92469,12.21657 0,0.78436 3.16277,7.82702 7.02839,15.65034 6.91221,13.98907 6.99133,14.23793 4.78682,15.05344 -2.60895,0.96511 -26.21279,1.8525 -29.52163,1.10986 z m 16.37355,-217.54712 c 4.78125,-3.09428 8.12473,-15.24819 6.40308,-23.27592 -1.40751,-6.56306 -3.29125,-10.08827 -7.10601,-13.29818 -8.89705,-7.48637 -19.16723,2.0876 -19.10786,17.81251 0.0598,15.82274 9.92113,25.16186 19.81079,18.76159 z M 195.54741,446.8313 c -2.26359,-0.46082 -2.91792,-1.08738 -2.68592,-2.57198 1.24386,-7.95981 81.32128,-261.69122 84.57572,-267.9846 1.92674,-3.72591 3.73912,-4.52746 12.10006,-5.35132 11.81398,-1.16411 11.23567,-1.67803 18.28923,16.25272 3.39895,8.64038 7.91924,20.31097 10.04508,25.93463 2.12586,5.62366 5.6152,14.82599 7.7541,20.44965 2.13888,5.62366 7.55672,19.87608 12.03963,31.67204 4.48291,11.79597 10.32918,27.05839 12.99171,33.91651 2.66252,6.85812 8.43861,21.89609 12.83575,33.41774 4.39713,11.52163 13.00684,33.96638 19.13265,49.87722 11.75888,30.54177 22.21553,58.34379 23.35542,62.09714 0.67875,2.23488 0.63131,2.245 -11.1067,2.36776 -6.48362,0.0678 -15.69106,0.18003 -20.461,0.24939 -8.62318,0.12537 -8.69332,0.1062 -12.30482,-3.36532 -5.5908,-5.37406 -7.70543,-9.72736 -16.40528,-33.77276 -12.90132,-35.65787 -23.12992,-62.39858 -24.34114,-63.63536 -0.79055,-0.80721 -12.41025,-1.26997 -39.37973,-1.5683 -37.95419,-0.41984 -38.26521,-0.40677 -39.12901,1.64387 -0.4789,1.13689 -6.0794,21.34444 -12.44558,44.90568 -6.36617,23.56124 -12.4248,44.50466 -13.46363,46.54092 -2.087,4.09087 -6.13166,7.70162 -9.3387,8.33688 -4.75356,0.94157 -9.24387,1.16035 -12.05784,0.58749 z M 312.11314,321.33273 c 0.46828,-0.75771 -25.85595,-73.91403 -30.8773,-85.80957 -4.40983,-10.44679 -7.60106,-10.07103 -10.86457,1.27926 -4.68927,16.30906 -21.34585,83.66248 -20.87729,84.4206 0.65865,1.06574 61.96192,1.17314 62.61916,0.10971 z m 192.90118,124.94245 c -50.7396,-8.53055 -86.09184,-46.5284 -95.10745,-102.22487 -2.23242,-13.79148 -1.96678,-40.29506 0.55152,-55.02552 5.81988,-34.04265 21.98353,-65.30613 45.05135,-87.13767 32.54042,-30.79647 77.98312,-38.58023 117.12698,-20.06238 17.5553,8.30492 20.59233,13.35012 21.23494,35.27619 0.27467,9.37212 0.0659,14.215 -0.61259,14.215 -0.56604,0 -4.86249,-5.10363 -9.54766,-11.34139 -11.53772,-15.36114 -20.42608,-23.42208 -32.35705,-29.34492 l -9.47164,-4.70196 h -14.55809 c -13.34345,0 -15.05818,0.21108 -20.55171,2.52993 -18.53273,7.82276 -32.10375,23.70163 -43.87596,51.33747 -16.38167,38.45674 -18.63258,93.29435 -5.37165,130.86627 6.59036,18.67231 18.50534,38.28386 29.84398,49.12191 10.32129,9.86563 23.50357,15.61726 38.10342,16.62509 11.37571,0.78528 16.44405,-0.44676 21.82084,-5.30437 5.49872,-4.96776 8.68368,-10.8075 10.29389,-18.87418 1.91332,-9.58522 2.73665,-31.74999 1.65812,-44.63896 -0.85739,-10.24646 -1.08301,-11.03695 -3.97567,-13.92962 l -3.06672,-3.06671 -17.72323,-0.77216 c -18.52941,-0.80728 -22.58035,-1.63915 -22.02499,-4.52288 0.77675,-4.03336 3.22252,-4.2236 54.49395,-4.23893 32.03168,-0.01 49.8678,0.34555 51.12415,1.01793 1.06122,0.56795 1.92951,1.87983 1.92951,2.91528 0,2.25044 -3.76295,3.60502 -12.64498,4.55194 -10.30594,1.09872 -9.75355,-1.11009 -10.08461,40.32477 l -0.28485,35.64948 -8.19428,4.54839 c -15.81611,8.77899 -29.75034,13.91171 -44.10589,16.24654 -10.8267,1.76089 -29.07248,1.74265 -39.67363,-0.0397 z M 2.9896005,445.55589 C 2.7249506,444.86057 2.6238274,383.91528 2.7648822,310.12193 L 3.0213457,175.95221 H 19.205849 c 15.511196,0 16.278943,0.0944 18.454572,2.27145 l 2.270068,2.27143 0.764533,127.40934 c 0.420493,70.07513 0.994097,128.0397 1.274673,128.81014 0.429803,1.18022 4.90648,1.2903 28.426661,0.69904 40.749114,-1.02437 63.035014,-3.73593 76.269314,-9.27979 7.31612,-3.06474 16.599,-9.56924 21.94805,-15.37896 l 3.99017,-4.33382 0.2772,13.03348 c 0.3146,14.79221 -0.74224,19.51571 -5.08829,22.74186 -2.79715,2.07637 -3.35705,2.09215 -83.569014,2.35706 -64.468315,0.21291 -80.8500392,0.0118 -81.2341855,-0.99755 z M 705.45287,443.28464 c -8.55039,-3.55081 -21.82149,-12.74266 -29.53622,-20.45737 -30.70502,-30.70502 -46.08619,-76.41305 -42.89081,-127.45809 1.90811,-30.48115 10.51755,-57.71684 25.18089,-79.65892 6.95787,-10.4117 9.11241,-13.32311 9.85949,-13.32311 0.45423,0 15.75616,16.88437 29.38169,32.42019 11.06129,12.61208 22.33173,28.29219 25.98723,36.15499 8.21961,17.67995 13.28011,39.93658 13.28011,58.40729 0,18.68981 -4.97366,46.92433 -15.58746,88.48711 -6.22274,24.36777 -7.33285,27.93715 -8.67378,27.88908 -0.64687,-0.0233 -3.79739,-1.13072 -7.00114,-2.46117 z m 21.01924,-68.40369 c 0.68151,-2.97282 2.41231,-13.26079 3.8462,-22.86215 3.33401,-22.32462 2.95292,-32.61886 -1.92073,-51.88398 -3.51336,-13.88806 -8.52225,-28.07041 -11.11333,-31.46675 -1.28541,-1.68488 -1.61868,-1.74301 -2.54016,-0.443 -2.27826,3.21406 -0.47347,10.50569 4.60922,18.62205 7.17412,11.45609 6.97448,13.66892 -2.49903,27.69938 -6.96626,10.31719 -7.3898,11.26362 -7.81215,17.45702 -0.95696,14.03316 10.19517,50.2811 14.97901,48.68649 0.66651,-0.22217 1.76945,-2.83625 2.45097,-5.80906 z m 401.10739,0.15932 c -7.0852,-5.57326 -1.8112,-17.75444 6.7561,-15.60419 5.9823,1.50146 8.5882,9.61702 4.6394,14.44853 -2.6052,3.18751 -8.1035,3.74511 -11.3955,1.15566 z m 85.6191,0.78739 c -1.0115,-0.588 -2.4909,-2.62893 -3.2875,-4.5354 -1.3063,-3.1264 -1.2727,-3.82028 0.3428,-7.076 3.2204,-6.48978 11.5167,-6.49737 14.8697,-0.0136 3.8953,7.53279 -4.644,15.85734 -11.925,11.62501 z m 242.6694,-1.78615 c -5.7874,-5.78743 -2.3599,-14.44137 5.7197,-14.44137 4.4326,0 8.3226,3.97847 8.3226,8.51174 0,3.86966 -4.7697,8.84553 -8.4791,8.84553 -1.596,0 -3.8054,-1.15806 -5.5632,-2.9159 z m -351.3357,-44.10268 c -14.0604,-2.08289 -22.7652,-14.92356 -22.744,-33.55005 0.014,-12.19367 2.1108,-18.7444 8.2312,-25.71515 4.031,-4.59104 9.3082,-7.24389 15.9627,-8.02451 14.7504,-1.73035 25.4454,7.42224 26.5393,22.71197 0.3811,5.32628 0.168,7.22256 -0.8866,7.89043 -0.7636,0.48353 -8.9074,0.88603 -18.0973,0.89444 l -16.7089,0.0153 v 4.30789 c 0,22.40019 19.6283,31.01546 31.0943,13.64791 1.5116,-2.28961 1.781,-2.36364 3.29,-0.90384 1.1184,1.08202 1.437,2.41247 0.9975,4.16427 -0.851,3.39024 -6.8751,10.35643 -10.6394,12.30297 -4.1377,2.13975 -11.3693,3.09826 -17.0388,2.2584 z m 14.052,-44.92885 c 0.4731,-4.09332 -1.6768,-10.76255 -4.3225,-13.40817 -5.9178,-5.91778 -14.8823,-0.20079 -16.9476,10.80802 -0.3758,2.00288 -0.3783,4.13491 -0.01,4.73787 0.44,0.71193 4.2343,0.99693 10.8224,0.81289 l 10.1493,-0.2834 z m -147.54798,42.79849 c -4.53091,-3.02685 -6.87749,-7.98755 -6.8794,-14.54314 -0.003,-11.78498 6.86448,-18.01358 25.93461,-23.52048 l 7.48155,-2.16047 -0.35851,-5.44009 c -0.45148,-6.8506 -2.21013,-10.30233 -6.06183,-11.89775 -5.90423,-2.44561 -10.96269,-0.16586 -17.28522,7.79014 -1.38324,1.74061 -2.15828,2.00087 -3.62344,1.21674 -5.18783,-2.77644 -2.31128,-9.16256 6.0047,-13.33077 14.69299,-7.36456 31.23042,-2.60008 34.73122,10.00613 0.5755,2.07242 1.0489,12.7684 1.0519,23.76882 0.01,21.07199 0.2768,22.39487 4.5873,22.39487 3.8615,0 4.114,4.99836 0.3542,7.01053 -2.8296,1.51438 -11.2102,1.15521 -13.6976,-0.58704 -1.2224,-0.85629 -2.9193,-2.90399 -3.77069,-4.55047 l -1.54807,-2.9936 -2.03197,2.58321 c -5.16258,6.56316 -18.11722,8.77706 -24.88875,4.25337 z m 23.16275,-10.58636 3.87279,-3.87283 v -9.53515 c 0,-5.24434 -0.3673,-9.76218 -0.81627,-10.03965 -1.26872,-0.78412 -11.33601,4.20029 -14.41217,7.13558 -7.49388,7.15074 -4.96716,20.18487 3.91292,20.18487 2.8168,0 4.38691,-0.81701 7.44273,-3.87282 z m -87.19538,11.229 c -0.38825,-0.38824 -0.70589,-20.74156 -0.70589,-45.22962 0,-33.29951 0.30177,-44.8255 1.19705,-45.72078 0.83243,-0.83244 6.11499,-1.19706 17.34248,-1.19706 20.08671,0 24.50467,1.16783 31.99641,8.45781 6.11876,5.95397 7.68736,10.56399 7.15844,21.03824 -0.4976,9.85388 -3.97247,15.43491 -12.52875,20.12255 -5.09692,2.79239 -7.59624,3.49262 -13.96561,3.91268 -9.33684,0.61576 -13.78506,1.84838 -14.88659,4.12516 -0.45168,0.93361 -1.0525,9.10422 -1.33515,18.15694 l -0.51388,16.45948 -6.52632,0.29025 c -3.58946,0.15963 -6.84395,-0.0275 -7.23219,-0.41565 z m 32.71184,-47.46686 c 5.95316,-4.29801 8.30165,-9.41053 8.38134,-18.24567 0.11414,-12.65596 -7.24112,-20.44966 -19.29929,-20.44966 -7.25187,0 -7.73267,1.43541 -7.35382,21.95491 0.29074,15.74716 0.47533,17.23361 2.31107,18.61017 2.76923,2.07657 11.99101,0.99626 15.9607,-1.86975 z m 84.47037,46.80909 c -1.6238,-1.95667 -1.4866,-59.7589 0.1472,-61.99331 0.8406,-1.14948 2.8307,-1.7631 6.1115,-1.88425 4.7704,-0.17615 4.8832,-0.11162 5.788,3.31175 0.5076,1.92027 1.0855,3.65698 1.2842,3.85934 0.1988,0.20238 2.1972,-1.20345 4.441,-3.12407 10.0559,-8.60749 24.6105,-6.87093 30.2127,3.60482 2.1265,3.97631 2.2135,5.17828 2.2135,30.57396 v 26.43493 h -6.484 -6.4841 l -0.5652,-23.94107 c -0.5877,-24.89153 -1.1066,-28.03991 -5.0802,-30.82321 -4.2757,-2.99471 -9.6325,-1.85581 -15.0536,3.20049 l -2.7432,2.5586 v 22.82248 c 0,13.82445 -0.4072,23.5832 -1.0327,24.75198 -0.8231,1.538 -2.1139,1.9295 -6.3619,1.9295 -3.1241,0 -5.7695,-0.53046 -6.3932,-1.28194 z m 117.2421,0.65911 c -0.3891,-0.38898 -0.7073,-22.39347 -0.7073,-48.89888 v -48.19165 l 2.4124,-1.58065 c 1.5225,-0.99759 4.0063,-1.46604 6.7333,-1.26993 l 4.3211,0.31073 v 49.87722 49.87722 l -6.0261,0.29157 c -3.3144,0.16036 -6.3445,-0.0267 -6.7334,-0.41563 z"
       id="path1" />
  </g>
</svg>
